<svg width="32" height="31" viewBox="0 0 32 31" fill="none" xmlns="http://www.w3.org/2000/svg">
<path d="M16.0243 5.40667e-05C10.5779 -0.0142316 5.785 2.80363 3.04571 7.06077C2.92429 7.25005 3.06 7.50005 3.285 7.50005H5.79571C5.96714 7.50005 6.12786 7.42505 6.235 7.29291C6.485 6.98934 6.75286 6.69648 7.035 6.41791C8.19929 5.2572 9.55286 4.34291 11.06 3.7072C12.6171 3.05005 14.2743 2.71434 15.985 2.71434C17.6957 2.71434 19.3529 3.04648 20.91 3.7072C22.4171 4.34291 23.7707 5.2572 24.935 6.41791C26.0993 7.57863 27.01 8.9322 27.6493 10.4358C28.31 11.9929 28.6421 13.6465 28.6421 15.3572C28.6421 17.0679 28.3064 18.7215 27.6493 20.2786C27.0136 21.7822 26.0993 23.1358 24.935 24.2965C23.7707 25.4572 22.4171 26.3715 20.91 27.0072C19.3516 27.6654 17.6767 28.0031 15.985 28.0001C14.2743 28.0001 12.6171 27.6643 11.06 27.0072C9.55582 26.3721 8.18895 25.4516 7.035 24.2965C6.75286 24.0143 6.48857 23.7215 6.235 23.4215C6.12786 23.2893 5.96357 23.2143 5.79571 23.2143H3.285C3.06 23.2143 2.92071 23.4643 3.04571 23.6536C5.78143 27.9001 10.5529 30.7143 15.985 30.7143C24.4207 30.7143 31.2707 23.9251 31.3564 15.5143C31.4421 6.96791 24.5814 0.0214826 16.0243 5.40667e-05ZM11.5 19.3572V16.6429H0.285714C0.128571 16.6429 0 16.5143 0 16.3572V14.3572C0 14.2001 0.128571 14.0715 0.285714 14.0715H11.5V11.3572C11.5 11.1179 11.7786 10.9822 11.9643 11.1322L17.0321 15.1322C17.0663 15.1589 17.0939 15.1931 17.1129 15.2321C17.1319 15.271 17.1418 15.3138 17.1418 15.3572C17.1418 15.4006 17.1319 15.4434 17.1129 15.4823C17.0939 15.5213 17.0663 15.5555 17.0321 15.5822L11.9643 19.5822C11.7786 19.7286 11.5 19.5965 11.5 19.3572Z" fill="#31313D"/>
</svg>
