<svg width="132" height="25" viewBox="0 0 132 25" fill="none" xmlns="http://www.w3.org/2000/svg">
<path d="M0.761364 0.727272H7.72727L13.6364 15.1364H13.9091L19.8182 0.727272H26.7841V24H21.3068V9.70455H21.1136L15.5227 23.8523H12.0227L6.43182 9.625H6.23864V24H0.761364V0.727272ZM38.4517 24.3295C36.6259 24.3295 35.0502 23.9697 33.7244 23.25C32.4063 22.5227 31.3911 21.4886 30.679 20.1477C29.9744 18.7992 29.6222 17.197 29.6222 15.3409C29.6222 13.5379 29.9782 11.9621 30.6903 10.6136C31.4025 9.25758 32.4062 8.20454 33.7017 7.45454C34.9972 6.69697 36.5237 6.31818 38.2812 6.31818C39.5237 6.31818 40.66 6.51136 41.6903 6.89773C42.7206 7.28409 43.6108 7.85606 44.3608 8.61364C45.1108 9.37121 45.6941 10.3068 46.1108 11.4205C46.5275 12.5265 46.7358 13.7955 46.7358 15.2273V16.6136H31.5653V13.3864H41.5653C41.5578 12.7955 41.4176 12.2689 41.1449 11.8068C40.8722 11.3447 40.4972 10.9848 40.0199 10.7273C39.5502 10.4621 39.0085 10.3295 38.3949 10.3295C37.7737 10.3295 37.2169 10.4697 36.7244 10.75C36.232 11.0227 35.8419 11.3977 35.554 11.875C35.2661 12.3447 35.1146 12.8788 35.0994 13.4773V16.7614C35.0994 17.4735 35.2396 18.0985 35.5199 18.6364C35.8002 19.1667 36.1979 19.5795 36.7131 19.875C37.2282 20.1705 37.8419 20.3182 38.554 20.3182C39.0464 20.3182 39.4934 20.25 39.8949 20.1136C40.2964 19.9773 40.6411 19.7765 40.929 19.5114C41.2169 19.2462 41.4328 18.9205 41.5767 18.5341L46.679 18.6818C46.4669 19.8258 46.0009 20.822 45.2812 21.6705C44.5691 22.5114 43.6335 23.1667 42.4744 23.6364C41.3153 24.0985 39.9744 24.3295 38.4517 24.3295ZM54.4943 24.2955C53.3807 24.2955 52.392 24.1098 51.5284 23.7386C50.6723 23.3598 49.9943 22.7917 49.4943 22.0341C49.0019 21.2689 48.7557 20.3106 48.7557 19.1591C48.7557 18.1894 48.9261 17.3712 49.267 16.7045C49.608 16.0379 50.0777 15.4962 50.6761 15.0795C51.2746 14.6629 51.964 14.3485 52.7443 14.1364C53.5246 13.9167 54.358 13.7689 55.2443 13.6932C56.2367 13.6023 57.036 13.5076 57.642 13.4091C58.2481 13.303 58.6875 13.1553 58.9602 12.9659C59.2405 12.7689 59.3807 12.4924 59.3807 12.1364V12.0795C59.3807 11.4962 59.1799 11.0455 58.7784 10.7273C58.3769 10.4091 57.8352 10.25 57.1534 10.25C56.4186 10.25 55.8277 10.4091 55.3807 10.7273C54.9337 11.0455 54.6496 11.4848 54.5284 12.0455L49.4034 11.8636C49.5549 10.803 49.9451 9.85606 50.5739 9.02273C51.2102 8.18182 52.0814 7.52273 53.1875 7.04545C54.3011 6.56061 55.6383 6.31818 57.1989 6.31818C58.3125 6.31818 59.339 6.45076 60.2784 6.71591C61.2178 6.97348 62.036 7.35227 62.733 7.85227C63.4299 8.3447 63.9678 8.95076 64.3466 9.67045C64.733 10.3902 64.9261 11.2121 64.9261 12.1364V24H59.6989V21.5682H59.5625C59.2519 22.1591 58.8542 22.6591 58.3693 23.0682C57.892 23.4773 57.3277 23.7841 56.6761 23.9886C56.0322 24.1932 55.3049 24.2955 54.4943 24.2955ZM56.2102 20.6591C56.8087 20.6591 57.3466 20.5379 57.8239 20.2955C58.3087 20.053 58.6951 19.7197 58.983 19.2955C59.2708 18.8636 59.4148 18.3636 59.4148 17.7955V16.1364C59.2557 16.2197 59.0625 16.2955 58.8352 16.3636C58.6155 16.4318 58.3731 16.4962 58.108 16.5568C57.8428 16.6174 57.5701 16.6705 57.2898 16.7159C57.0095 16.7614 56.7405 16.803 56.483 16.8409C55.9602 16.9242 55.5133 17.053 55.142 17.2273C54.7784 17.4015 54.4981 17.6288 54.3011 17.9091C54.1117 18.1818 54.017 18.5076 54.017 18.8864C54.017 19.4621 54.2216 19.9015 54.6307 20.2045C55.0473 20.5076 55.5739 20.6591 56.2102 20.6591ZM78.1761 6.54545V10.6364H67.1648V6.54545H78.1761ZM69.4716 2.36364H75.0284V18.5114C75.0284 18.8523 75.0814 19.1288 75.1875 19.3409C75.3011 19.5455 75.464 19.6932 75.6761 19.7841C75.8883 19.8674 76.142 19.9091 76.4375 19.9091C76.6496 19.9091 76.8731 19.8902 77.108 19.8523C77.3504 19.8068 77.5322 19.7689 77.6534 19.7386L78.4943 23.75C78.2292 23.8258 77.8542 23.9205 77.3693 24.0341C76.892 24.1477 76.3201 24.2197 75.6534 24.25C74.3504 24.3106 73.233 24.1591 72.3011 23.7955C71.3769 23.4242 70.6686 22.8485 70.1761 22.0682C69.6913 21.2879 69.4564 20.3068 69.4716 19.125V2.36364Z" fill="#003457"/>
<path d="M109.852 12.3636C109.852 14.9242 109.36 17.0947 108.375 18.875C107.39 20.6553 106.057 22.0076 104.375 22.9318C102.701 23.8561 100.822 24.3182 98.7386 24.3182C96.6477 24.3182 94.7652 23.8523 93.0909 22.9205C91.4167 21.9886 90.0871 20.6364 89.1023 18.8636C88.125 17.0833 87.6364 14.9167 87.6364 12.3636C87.6364 9.80303 88.125 7.63258 89.1023 5.85227C90.0871 4.07197 91.4167 2.7197 93.0909 1.79545C94.7652 0.871211 96.6477 0.40909 98.7386 0.40909C100.822 0.40909 102.701 0.871211 104.375 1.79545C106.057 2.7197 107.39 4.07197 108.375 5.85227C109.36 7.63258 109.852 9.80303 109.852 12.3636ZM104.102 12.3636C104.102 10.8485 103.886 9.56818 103.455 8.52273C103.03 7.47727 102.417 6.6856 101.614 6.14773C100.818 5.60985 99.8598 5.34091 98.7386 5.34091C97.625 5.34091 96.6667 5.60985 95.8636 6.14773C95.0606 6.6856 94.4432 7.47727 94.0114 8.52273C93.5871 9.56818 93.375 10.8485 93.375 12.3636C93.375 13.8788 93.5871 15.1591 94.0114 16.2045C94.4432 17.25 95.0606 18.0417 95.8636 18.5795C96.6667 19.1174 97.625 19.3864 98.7386 19.3864C99.8598 19.3864 100.818 19.1174 101.614 18.5795C102.417 18.0417 103.03 17.25 103.455 16.2045C103.886 15.1591 104.102 13.8788 104.102 12.3636ZM125.716 7.70454C125.64 6.87121 125.303 6.22348 124.705 5.76136C124.114 5.29167 123.269 5.05682 122.17 5.05682C121.443 5.05682 120.837 5.15151 120.352 5.34091C119.867 5.5303 119.504 5.79167 119.261 6.125C119.019 6.45076 118.894 6.82576 118.886 7.25C118.871 7.59848 118.939 7.9053 119.091 8.17045C119.25 8.43561 119.477 8.67045 119.773 8.875C120.076 9.07197 120.439 9.24621 120.864 9.39773C121.288 9.54924 121.765 9.68182 122.295 9.79545L124.295 10.25C125.447 10.5 126.462 10.8333 127.341 11.25C128.227 11.6667 128.97 12.1629 129.568 12.7386C130.174 13.3144 130.633 13.9773 130.943 14.7273C131.254 15.4773 131.413 16.3182 131.42 17.25C131.413 18.7197 131.042 19.9811 130.307 21.0341C129.572 22.0871 128.515 22.8939 127.136 23.4545C125.765 24.0152 124.11 24.2955 122.17 24.2955C120.223 24.2955 118.527 24.0038 117.08 23.4205C115.633 22.8371 114.508 21.9508 113.705 20.7614C112.902 19.572 112.489 18.0682 112.466 16.25H117.852C117.898 17 118.098 17.625 118.455 18.125C118.811 18.625 119.299 19.0038 119.92 19.2614C120.549 19.5189 121.277 19.6477 122.102 19.6477C122.86 19.6477 123.504 19.5455 124.034 19.3409C124.572 19.1364 124.985 18.8523 125.273 18.4886C125.561 18.125 125.708 17.7083 125.716 17.2386C125.708 16.7992 125.572 16.4242 125.307 16.1136C125.042 15.7955 124.633 15.5227 124.08 15.2955C123.534 15.0606 122.837 14.8447 121.989 14.6477L119.557 14.0795C117.542 13.6174 115.955 12.8712 114.795 11.8409C113.636 10.803 113.061 9.40151 113.068 7.63636C113.061 6.19697 113.447 4.93561 114.227 3.85227C115.008 2.76894 116.087 1.92424 117.466 1.31818C118.845 0.712121 120.417 0.40909 122.182 0.40909C123.985 0.40909 125.549 0.715908 126.875 1.32954C128.208 1.93561 129.242 2.78788 129.977 3.88636C130.712 4.98485 131.087 6.25757 131.102 7.70454H125.716Z" fill="#353535"/>
</svg>
